<svg xmlns="http://www.w3.org/2000/svg" id="Layer_3" data-name="Layer 3" viewBox="33.25 219.68 433.52 60.61"><title>Full black</title><path d="M48,277a25.3,25.3,0,0,1-10.89-9.14,24.13,24.13,0,0,1-3.85-13.49,32.93,32.93,0,0,1,18.45-30.26,42.87,42.87,0,0,1,19.74-4.42,37.36,37.36,0,0,1,15.47,3,21.38,21.38,0,0,1,10,8.56l-14.69,11a13.21,13.21,0,0,0-12.09-6.78,16.11,16.11,0,0,0-8.47,2.23A15.28,15.28,0,0,0,55.87,244a19.66,19.66,0,0,0-2.07,9.14,10.57,10.57,0,0,0,3.41,8.24,12.88,12.88,0,0,0,9,3.1q7.68,0,13.48-6.7l12,11a30.43,30.43,0,0,1-12,8.86,42.07,42.07,0,0,1-15.51,2.64A38.25,38.25,0,0,1,48,277Z"/><path d="M151.53,253.62a25.3,25.3,0,0,1-12.06,8.94l10.11,17.63H128.41L119.86,265h-5l-3,15.21H91.43l12.1-60.48h27.13q11.93,0,18.53,5.23t6.61,14.64A23.56,23.56,0,0,1,151.53,253.62Zm-24-18.19h-6.83l-2.85,14.17h8.38a9.45,9.45,0,0,0,6.57-2.11,7.61,7.61,0,0,0,2.33-5.92Q135.15,235.44,127.55,235.43Z"/><path d="M434.54,235.11l-1.38,7.09h16.93l-2.94,14.69h-17l-1.55,7.94H458.9l-3.11,15.39H405.51l12.09-60.48h49.17l-3.11,15.37Z"/><polygon points="249.92 280.22 241.1 242.09 223.09 272.01 218.14 280.25 199.01 280.23 233.77 219.74 254.44 219.74 269.07 280.22 249.92 280.22"/><path d="M330.83,219.76l-36.6,60.48H274.18l-14.55-60.48h20.91L288.06,255l21.86-35.26Z"/><path d="M334.07,219.76h20.39l-12.09,60.48H322Z"/><path d="M372.58,235.55H354.86l3.2-15.81h55.81l-3.19,15.81H393l-8.9,44.67H363.68Z"/><path d="M183.05,235.09l-1.38,7.08h21.65l-8.63,14.69h-16l-1.56,7.95h25.67l-8.86,15.38H154l12.1-60.48h62.54l-8.82,15.38Z"/></svg>